<?xml version="1.0" encoding="utf-8"?>
<!-- Generator: Adobe Illustrator 28.1.0, SVG Export Plug-In . SVG Version: 6.00 Build 0)  -->
<svg version="1.1" xmlns="http://www.w3.org/2000/svg" xmlns:xlink="http://www.w3.org/1999/xlink" x="0px" y="0px"
	 viewBox="0 0 16 16" style="enable-background:new 0 0 16 16;" xml:space="preserve">
<style type="text/css">
	.st0{fill:#34BCA8;}
	.st1{fill:#FFFFFF;}
</style>
<g id="Layer_2">
	<rect class="st0" width="16" height="16"/>
</g>
<g id="Layer_1">
	<g id="Layer_1_1_">
		<path class="st1" d="M10.6,3.2h-1l0,5.6c0,2-0.6,2.5-1.1,2.8c0.3-0.6,0.3-0.9,0.3-2.3l0-6.1H8c-2,0-3.1,0.7-3.1,2.6
			c0,1.7,1.3,2.5,2.8,2.4l0,1.1c0,1.7-0.1,2.2-1,2.4c-0.3,0.1-0.8-0.1-1.2-0.3l0,1c0.3,0.1,0.8,0.3,1.4,0.3c2.1,0,3.5-1.1,3.5-4.1
			L10.6,3.2z"/>
	</g>
</g>
</svg>
